:FULLY-SPECIFIED
:FORCE-ALL-JOINTS-BE-3DOF
:DEGREES
2548
root 4.00084 13.7694 -23.7192 1046.9 87.4249 -34.5158
lfemur -35.193 0.381585 -15.737
ltibia 89.1887 0 0
lfoot -24.3613 30.4685 0
ltoes -41.1427 0 0
rfemur -54.6459 -17.0752 5.20865
rtibia 47.8723 0 0
rfoot -7.43103 6.25281 0
rtoes 5.17777 0 0
lowerback 17.4873 -0.505924 -3.65981
upperback -0.320849 -1.03867 3.1478
thorax -10.0792 -0.183587 5.81183
lowerneck 5.28915 -14.3483 -15.2639
upperneck -0.103809 -20.0958 14.8136
head 2.17248 -10.2029 6.23596
lclavicle 9.92118e-15 -1.01196e-15 0
lhumerus -42.8467 -47.3575 110.825
lradius 106.59 0 0
lwrist 79.8822 0 0
lhand 6.60533 400.379 0
lfingers 7.12502 0 0
lthumb 32.3971 -652.511 0
rclavicle -2.07233e-14 1.82882e-14 0
rhumerus 12.6249 -9.33378 -58.0407
rradius 81.6626 0 0
rwrist 9.15201 0 0
rhand -33.1715 -404.54 0
rfingers 7.12502 0 0
rthumb -6.00811 285.74 0
2549
root 3.94602 13.8019 -23.8491 1063.56 86.3371 -17.6461
lfemur -35.1988 -0.671148 -15.9849
ltibia 88.7855 0 0
lfoot -23.7829 30.8245 0
ltoes -41.4208 0 0
rfemur -55.1926 -16.8523 6.38256
rtibia 46.7484 0 0
rfoot -7.62302 5.93433 0
rtoes 4.5863 0 0
lowerback 17.7476 -0.491237 -4.00099
upperback -0.162749 -1.09174 3.16648
thorax -10.0379 -0.193917 6.04836
lowerneck 5.31201 -14.2867 -15.3649
upperneck -0.0311793 -20.0271 14.8521
head 2.19431 -10.1699 6.26569
lclavicle 1.06485e-14 1.62673e-16 0
lhumerus -42.2615 -47.6795 110.584
lradius 106.285 0 0
lwrist 79.4479 0 0
lhand 6.49718 400.387 0
lfingers 7.12502 0 0
lthumb 32.1345 -652.499 0
rclavicle -2.24082e-14 1.73795e-14 0
rhumerus 13.9361 -7.5885 -57.3271
rradius 82.1653 0 0
rwrist 7.12376 0 0
rhand -32.6469 -404.223 0
rfingers 7.12502 0 0
rthumb -5.60908 285.991 0
2550
root 3.89319 13.8344 -23.9859 1073.5 85.0017 -7.42388
lfemur -35.4339 -0.409627 -16.2882
ltibia 88.3822 0 0
lfoot -23.2045 31.1806 0
ltoes -41.699 0 0
rfemur -55.7393 -16.6295 7.55648
rtibia 45.6245 0 0
rfoot -7.81502 5.61586 0
rtoes 3.99483 0 0
lowerback 18.0528 -0.516278 -4.32661
upperback -0.00628117 -1.21048 3.06841
thorax -10.0158 -0.240168 6.16496
lowerneck 5.1318 -14.2786 -15.2805
upperneck 0.320545 -20.0117 14.7351
head 2.30353 -10.1528 6.19413
lclavicle 1.13759e-14 1.33731e-15 0
lhumerus -41.6763 -48.0015 110.343
lradius 105.98 0 0
lwrist 79.0135 0 0
lhand 6.38902 400.395 0
lfingers 7.12502 0 0
lthumb 31.8719 -652.487 0
rclavicle -2.40932e-14 1.64707e-14 0
rhumerus 15.2472 -5.84323 -56.6134
rradius 82.6681 0 0
rwrist 5.0955 0 0
rhand -32.1223 -403.906 0
rfingers 7.12502 0 0
rthumb -5.21005 286.242 0
2551
root 3.8419 13.8722 -24.1304 1077.93 83.3645 -2.81795
lfemur -35.669 -0.148107 -16.5915
ltibia 87.979 0 0
lfoot -22.6261 31.5366 0
ltoes -41.9771 0 0
rfemur -56.2861 -16.4066 8.73039
rtibia 44.5007 0 0
rfoot -8.00701 5.29738 0
rtoes 3.40337 0 0
lowerback 18.2457 -0.517811 -4.66981
upperback 0.16141 -1.28748 3.07361
thorax -9.91986 -0.265828 6.3916
lowerneck 4.85866 -14.2997 -15.423
upperneck 0.777835 -20.0535 14.8342
head 2.51344 -10.1612 6.19559
lclavicle 1.21033e-14 2.51195e-15 0
lhumerus -41.0911 -48.3235 110.102
lradius 105.675 0 0
lwrist 78.5792 0 0
lhand 6.28086 400.403 0
lfingers 7.12502 0 0
lthumb 31.6093 -652.475 0
rclavicle -2.57781e-14 1.5562e-14 0
rhumerus 16.5584 -4.09795 -55.8998
rradius 83.1709 0 0
rwrist 3.06724 0 0
rhand -31.5978 -403.589 0
rfingers 7.12502 0 0
rthumb -4.81103 286.493 0
2552
root 3.79253 13.9055 -24.2838 1081.98 81.5396 1.29475
lfemur -35.9042 0.113414 -16.8948
ltibia 87.5757 0 0
lfoot -22.0477 31.8926 0
ltoes -42.2552 0 0
rfemur -56.8328 -16.1837 9.90431
rtibia 43.3768 0 0
rfoot -8.199 4.9789 0
rtoes 2.8119 0 0
lowerback 18.3891 -0.433872 -5.18754
upperback 0.23981 -1.29862 3.01368
thorax -9.90242 -0.250216 6.63162
lowerneck 4.78092 -14.3116 -15.5164
upperneck 1.00835 -20.0839 14.8676
head 2.61155 -10.1724 6.19855
lclavicle 1.28307e-14 3.68658e-15 0
lhumerus -40.5058 -48.6455 109.861
lradius 105.37 0 0
lwrist 78.1449 0 0
lhand 6.1727 400.411 0
lfingers 7.12502 0 0
lthumb 31.3467 -652.463 0
rclavicle -2.74631e-14 1.46533e-14 0
rhumerus 17.8695 -2.35267 -55.1862
rradius 83.6736 0 0
rwrist 1.03899 0 0
rhand -31.0732 -403.273 0
rfingers 7.12502 0 0
rthumb -4.412 286.744 0
2553
root 3.74578 13.9462 -24.4393 1082.89 79.466 2.26501
lfemur -36.1393 0.374934 -17.1981
ltibia 87.1725 0 0
lfoot -21.4693 32.2486 0
ltoes -42.5333 0 0
rfemur -57.3795 -15.9608 11.0782
rtibia 42.253 0 0
rfoot -8.39099 4.66043 0
rtoes 2.22044 0 0
lowerback 18.3971 -0.298843 -5.26873
upperback 0.360865 -1.1575 2.81727
thorax -9.79558 -0.192928 6.41846
lowerneck 4.90586 -14.4058 -15.2718
upperneck 1.02539 -20.2192 14.9819
head 2.60521 -10.2433 6.19638
lclavicle 1.3558e-14 4.86122e-15 0
lhumerus -39.9206 -48.9675 109.62
lradius 105.065 0 0
lwrist 77.7105 0 0
lhand 6.06455 400.419 0
lfingers 7.12502 0 0
lthumb 31.0841 -652.451 0
rclavicle -2.9148e-14 1.37445e-14 0
rhumerus 19.1807 -0.607387 -54.4725
rradius 84.1764 0 0
rwrist -0.989267 0 0
rhand -30.5486 -402.956 0
rfingers 7.12502 0 0
rthumb -4.01298 286.995 0
2554
root 3.70024 13.9904 -24.5993 1083.51 77.1642 2.826
lfemur -36.3744 0.636455 -17.5013
ltibia 86.7692 0 0
lfoot -21.8442 32.3997 0
ltoes -42.8114 0 0
rfemur -57.9262 -15.738 12.2521
rtibia 41.1291 0 0
rfoot -8.58298 4.34195 0
rtoes 1.62897 0 0
lowerback 18.4732 -0.154705 -5.55318
upperback 0.37518 -1.0355 2.79104
thorax -9.83679 -0.121206 6.52545
lowerneck 4.88969 -14.4459 -15.411
upperneck 1.11239 -20.2914 15.0951
head 2.6708 -10.2789 6.23406
lclavicle 1.42854e-14 6.03585e-15 0
lhumerus -39.1268 -49.2942 109.311
lradius 104.761 0 0
lwrist 77.2762 0 0
lhand 5.95639 400.427 0
lfingers 7.12502 0 0
lthumb 30.8215 -652.439 0
rclavicle -3.08329e-14 1.28358e-14 0
rhumerus 20.4918 1.13789 -53.7589
rradius 84.6792 0 0
rwrist -3.01752 0 0
rhand -30.0241 -402.639 0
rfingers 7.12502 0 0
rthumb -3.61395 287.246 0
2555
root 3.65516 14.0354 -24.7653 1083.59 74.6572 2.75456
lfemur -36.6095 0.897976 -17.8046
ltibia 86.366 0 0
lfoot -22.219 32.5509 0
ltoes -43.0896 0 0
rfemur -58.473 -15.5151 13.426
rtibia 40.0052 0 0
rfoot -8.77497 4.02348 0
rtoes 1.03751 0 0
lowerback 18.5157 -0.012518 -5.85612
upperback 0.37661 -0.910408 2.8475
thorax -9.87376 -0.0444394 6.73412
lowerneck 4.82441 -14.4445 -15.5597
upperneck 1.10807 -20.2919 15.1324
head 2.69902 -10.2778 6.25792
lclavicle 1.50128e-14 7.21049e-15 0
lhumerus -38.3331 -49.6208 109.003
lradius 104.456 0 0
lwrist 76.8418 0 0
lhand 5.84823 400.435 0
lfingers 7.12502 0 0
lthumb 30.5589 -652.427 0
rclavicle -3.25179e-14 1.19271e-14 0
rhumerus 21.803 2.88317 -53.0453
rradius 85.182 0 0
rwrist -5.04578 0 0
rhand -29.4995 -402.322 0
rfingers 7.12502 0 0
rthumb -3.15343 287.67 0
2556
root 3.60577 14.0864 -24.9403 1083.52 71.9333 2.39452
lfemur -36.8446 1.1595 -18.1079
ltibia 85.9627 0 0
lfoot -22.5939 32.702 0
ltoes -43.3677 0 0
rfemur -59.0197 -15.2922 14.6
rtibia 38.8814 0 0
rfoot -8.96696 3.705 0
rtoes 0.446041 0 0
lowerback 18.5304 0.137109 -6.05231
upperback 0.332434 -0.756319 2.87578
thorax -9.95405 0.0428657 6.84202
lowerneck 4.7305 -14.4346 -15.6074
upperneck 1.02526 -20.2657 15.163
head 2.69365 -10.2625 6.27057
lclavicle 1.57402e-14 8.38513e-15 0
lhumerus -37.5394 -49.9475 108.694
lradius 104.151 0 0
lwrist 76.4075 0 0
lhand 5.74007 400.443 0
lfingers 7.12502 0 0
lthumb 30.4482 -652.22 0
rclavicle -3.42028e-14 1.10184e-14 0
rhumerus 23.1141 4.62845 -52.3316
rradius 85.6847 0 0
rwrist -7.07403 0 0
rhand -29.1643 -402.036 0
rfingers 7.12502 0 0
rthumb -2.6929 288.094 0
2557
root 3.56015 14.1369 -25.1132 1083.52 69.0786 2.21086
lfemur -37.0797 1.42102 -18.4112
ltibia 85.5595 0 0
lfoot -22.9688 32.8531 0
ltoes -43.6458 0 0
rfemur -59.5664 -15.0694 15.7739
rtibia 37.7575 0 0
rfoot -9.15895 3.38652 0
rtoes -0.145425 0 0
lowerback 18.62 0.269946 -6.37599
upperback 0.335914 -0.654196 2.90559
thorax -10.0146 0.110257 7.04068
lowerneck 4.40711 -14.3742 -15.3666
upperneck 0.97056 -20.124 15.0198
head 2.66789 -10.1789 6.18894
lclavicle 1.64675e-14 9.55976e-15 0
lhumerus -36.7456 -50.2741 108.385
lradius 103.846 0 0
lwrist 75.9732 0 0
lhand 5.63192 400.451 0
lfingers 7.12502 0 0
lthumb 30.3375 -652.012 0
rclavicle -3.58877e-14 1.01096e-14 0
rhumerus 24.4253 6.37373 -51.618
rradius 86.1875 0 0
rwrist -9.10229 0 0
rhand -28.8291 -401.75 0
rfingers 7.12502 0 0
rthumb -2.23238 288.517 0
